<mxfile host="app.diagrams.net" modified="2023-05-23T06:38:34.405Z" agent="Mozilla/5.0 (Windows NT 10.0; Win64; x64) AppleWebKit/537.36 (KHTML, like Gecko) Chrome/113.0.0.0 Safari/537.36" etag="a_wuLOP-eE4wQ8eRwql6" version="21.3.2" type="device">
  <diagram name="Page-1" id="wAdA_hLmS7oSpRI644A9">
    <mxGraphModel dx="1050" dy="541" grid="1" gridSize="10" guides="1" tooltips="1" connect="1" arrows="1" fold="1" page="1" pageScale="1" pageWidth="827" pageHeight="1169" math="0" shadow="0">
      <root>
        <mxCell id="0" />
        <mxCell id="1" parent="0" />
        <mxCell id="GL3_LSBW69E1Yred1H23-9" style="rounded=0;orthogonalLoop=1;jettySize=auto;html=1;exitX=0.5;exitY=1;exitDx=0;exitDy=0;endArrow=none;endFill=0;dashed=1;" parent="1" source="GL3_LSBW69E1Yred1H23-1" target="GL3_LSBW69E1Yred1H23-4" edge="1">
          <mxGeometry relative="1" as="geometry" />
        </mxCell>
        <mxCell id="GL3_LSBW69E1Yred1H23-1" value="&lt;font style=&quot;font-size: 14px;&quot;&gt;Summarizer&lt;/font&gt;" style="rounded=1;whiteSpace=wrap;html=1;" parent="1" vertex="1">
          <mxGeometry x="560" y="80" width="120" height="60" as="geometry" />
        </mxCell>
        <mxCell id="GL3_LSBW69E1Yred1H23-8" style="rounded=0;orthogonalLoop=1;jettySize=auto;html=1;exitX=0.5;exitY=1;exitDx=0;exitDy=0;endArrow=none;endFill=0;dashed=1;" parent="1" source="RlYEHJUeCQ2ZVnFXcYko-4" target="GL3_LSBW69E1Yred1H23-5" edge="1">
          <mxGeometry relative="1" as="geometry" />
        </mxCell>
        <mxCell id="GL3_LSBW69E1Yred1H23-2" value="&lt;font style=&quot;font-size: 14px;&quot;&gt;User Interface&lt;/font&gt;" style="rounded=1;whiteSpace=wrap;html=1;" parent="1" vertex="1">
          <mxGeometry x="320" y="80" width="120" height="60" as="geometry" />
        </mxCell>
        <mxCell id="GL3_LSBW69E1Yred1H23-7" style="rounded=0;orthogonalLoop=1;jettySize=auto;html=1;exitX=0.5;exitY=1;exitDx=0;exitDy=0;endArrow=none;endFill=0;dashed=1;" parent="1" source="RlYEHJUeCQ2ZVnFXcYko-2" target="GL3_LSBW69E1Yred1H23-6" edge="1">
          <mxGeometry relative="1" as="geometry" />
        </mxCell>
        <mxCell id="GL3_LSBW69E1Yred1H23-3" value="&lt;font style=&quot;font-size: 14px;&quot;&gt;User&lt;/font&gt;" style="rounded=1;whiteSpace=wrap;html=1;" parent="1" vertex="1">
          <mxGeometry x="80" y="80" width="120" height="60" as="geometry" />
        </mxCell>
        <mxCell id="GL3_LSBW69E1Yred1H23-4" value="&lt;font style=&quot;font-size: 14px;&quot;&gt;Summarizer&lt;/font&gt;" style="rounded=1;whiteSpace=wrap;html=1;" parent="1" vertex="1">
          <mxGeometry x="560" y="700" width="120" height="60" as="geometry" />
        </mxCell>
        <mxCell id="GL3_LSBW69E1Yred1H23-5" value="&lt;font style=&quot;font-size: 14px;&quot;&gt;User Interface&lt;/font&gt;" style="rounded=1;whiteSpace=wrap;html=1;" parent="1" vertex="1">
          <mxGeometry x="320" y="700" width="120" height="60" as="geometry" />
        </mxCell>
        <mxCell id="GL3_LSBW69E1Yred1H23-6" value="&lt;font style=&quot;font-size: 14px;&quot;&gt;User&lt;/font&gt;" style="rounded=1;whiteSpace=wrap;html=1;" parent="1" vertex="1">
          <mxGeometry x="80" y="700" width="120" height="60" as="geometry" />
        </mxCell>
        <mxCell id="GL3_LSBW69E1Yred1H23-10" value="" style="endArrow=classic;html=1;rounded=0;" parent="1" edge="1" target="RlYEHJUeCQ2ZVnFXcYko-4">
          <mxGeometry width="50" height="50" relative="1" as="geometry">
            <mxPoint x="140" y="210" as="sourcePoint" />
            <mxPoint x="370" y="210" as="targetPoint" />
          </mxGeometry>
        </mxCell>
        <mxCell id="GL3_LSBW69E1Yred1H23-11" value="" style="endArrow=classic;html=1;rounded=0;dashed=1;" parent="1" edge="1" target="RlYEHJUeCQ2ZVnFXcYko-2">
          <mxGeometry width="50" height="50" relative="1" as="geometry">
            <mxPoint x="380" y="640" as="sourcePoint" />
            <mxPoint x="140" y="640" as="targetPoint" />
          </mxGeometry>
        </mxCell>
        <mxCell id="GL3_LSBW69E1Yred1H23-12" value="" style="endArrow=classic;html=1;rounded=0;" parent="1" edge="1" target="RlYEHJUeCQ2ZVnFXcYko-6">
          <mxGeometry width="50" height="50" relative="1" as="geometry">
            <mxPoint x="380" y="280" as="sourcePoint" />
            <mxPoint x="620" y="280" as="targetPoint" />
          </mxGeometry>
        </mxCell>
        <mxCell id="GL3_LSBW69E1Yred1H23-13" value="" style="endArrow=classic;html=1;rounded=0;" parent="1" edge="1" target="RlYEHJUeCQ2ZVnFXcYko-6">
          <mxGeometry width="50" height="50" relative="1" as="geometry">
            <mxPoint x="380" y="340" as="sourcePoint" />
            <mxPoint x="620" y="340" as="targetPoint" />
          </mxGeometry>
        </mxCell>
        <mxCell id="GL3_LSBW69E1Yred1H23-14" value="" style="endArrow=classic;html=1;rounded=0;" parent="1" edge="1" target="RlYEHJUeCQ2ZVnFXcYko-6">
          <mxGeometry width="50" height="50" relative="1" as="geometry">
            <mxPoint x="380" y="400" as="sourcePoint" />
            <mxPoint x="620" y="400" as="targetPoint" />
          </mxGeometry>
        </mxCell>
        <mxCell id="GL3_LSBW69E1Yred1H23-16" value="" style="endArrow=classic;html=1;rounded=0;" parent="1" edge="1" target="RlYEHJUeCQ2ZVnFXcYko-6">
          <mxGeometry width="50" height="50" relative="1" as="geometry">
            <mxPoint x="380" y="460" as="sourcePoint" />
            <mxPoint x="620" y="460" as="targetPoint" />
          </mxGeometry>
        </mxCell>
        <mxCell id="GL3_LSBW69E1Yred1H23-17" value="" style="endArrow=classic;html=1;rounded=0;" parent="1" edge="1" target="RlYEHJUeCQ2ZVnFXcYko-6">
          <mxGeometry width="50" height="50" relative="1" as="geometry">
            <mxPoint x="380" y="520" as="sourcePoint" />
            <mxPoint x="620" y="520" as="targetPoint" />
          </mxGeometry>
        </mxCell>
        <mxCell id="GL3_LSBW69E1Yred1H23-18" value="" style="endArrow=classic;html=1;rounded=0;" parent="1" edge="1" target="RlYEHJUeCQ2ZVnFXcYko-6">
          <mxGeometry width="50" height="50" relative="1" as="geometry">
            <mxPoint x="380" y="580" as="sourcePoint" />
            <mxPoint x="620" y="580" as="targetPoint" />
          </mxGeometry>
        </mxCell>
        <mxCell id="GL3_LSBW69E1Yred1H23-19" value="&lt;font style=&quot;font-size: 14px;&quot;&gt;Upload Document&lt;/font&gt;" style="text;html=1;align=center;verticalAlign=middle;resizable=0;points=[];autosize=1;strokeColor=none;fillColor=none;" parent="1" vertex="1">
          <mxGeometry x="180" y="178" width="140" height="30" as="geometry" />
        </mxCell>
        <mxCell id="GL3_LSBW69E1Yred1H23-20" value="&lt;font style=&quot;font-size: 14px;&quot;&gt;Display Summary&lt;/font&gt;" style="text;html=1;align=center;verticalAlign=middle;resizable=0;points=[];autosize=1;strokeColor=none;fillColor=none;" parent="1" vertex="1">
          <mxGeometry x="180" y="600" width="130" height="30" as="geometry" />
        </mxCell>
        <mxCell id="GL3_LSBW69E1Yred1H23-21" value="&lt;font style=&quot;font-size: 14px;&quot;&gt;Process Uploaded Document&lt;/font&gt;" style="text;html=1;align=center;verticalAlign=middle;resizable=0;points=[];autosize=1;strokeColor=none;fillColor=none;" parent="1" vertex="1">
          <mxGeometry x="390" y="250" width="210" height="30" as="geometry" />
        </mxCell>
        <mxCell id="GL3_LSBW69E1Yred1H23-22" value="&lt;font style=&quot;font-size: 14px;&quot;&gt;Select Algorithm&lt;/font&gt;" style="text;html=1;align=center;verticalAlign=middle;resizable=0;points=[];autosize=1;strokeColor=none;fillColor=none;" parent="1" vertex="1">
          <mxGeometry x="435" y="310" width="120" height="30" as="geometry" />
        </mxCell>
        <mxCell id="GL3_LSBW69E1Yred1H23-23" value="&lt;font style=&quot;font-size: 14px;&quot;&gt;Choose Percentage&lt;/font&gt;" style="text;html=1;align=center;verticalAlign=middle;resizable=0;points=[];autosize=1;strokeColor=none;fillColor=none;" parent="1" vertex="1">
          <mxGeometry x="420" y="370" width="150" height="30" as="geometry" />
        </mxCell>
        <mxCell id="GL3_LSBW69E1Yred1H23-24" value="&lt;font style=&quot;font-size: 14px;&quot;&gt;Request Summarization&amp;nbsp;&lt;/font&gt;" style="text;html=1;align=center;verticalAlign=middle;resizable=0;points=[];autosize=1;strokeColor=none;fillColor=none;" parent="1" vertex="1">
          <mxGeometry x="405" y="430" width="180" height="30" as="geometry" />
        </mxCell>
        <mxCell id="GL3_LSBW69E1Yred1H23-25" value="&lt;font style=&quot;font-size: 14px;&quot;&gt;Generate Summary&lt;/font&gt;" style="text;html=1;align=center;verticalAlign=middle;resizable=0;points=[];autosize=1;strokeColor=none;fillColor=none;" parent="1" vertex="1">
          <mxGeometry x="420" y="490" width="150" height="30" as="geometry" />
        </mxCell>
        <mxCell id="GL3_LSBW69E1Yred1H23-27" value="&lt;font style=&quot;font-size: 14px;&quot;&gt;Retrieve Summarized Text&lt;/font&gt;" style="text;html=1;align=center;verticalAlign=middle;resizable=0;points=[];autosize=1;strokeColor=none;fillColor=none;" parent="1" vertex="1">
          <mxGeometry x="400" y="548" width="190" height="30" as="geometry" />
        </mxCell>
        <mxCell id="RlYEHJUeCQ2ZVnFXcYko-3" value="" style="rounded=0;orthogonalLoop=1;jettySize=auto;html=1;exitX=0.5;exitY=1;exitDx=0;exitDy=0;endArrow=none;endFill=0;dashed=1;" edge="1" parent="1" source="GL3_LSBW69E1Yred1H23-3" target="RlYEHJUeCQ2ZVnFXcYko-2">
          <mxGeometry relative="1" as="geometry">
            <mxPoint x="140" y="140" as="sourcePoint" />
            <mxPoint x="140" y="700" as="targetPoint" />
          </mxGeometry>
        </mxCell>
        <mxCell id="RlYEHJUeCQ2ZVnFXcYko-2" value="" style="html=1;points=[];perimeter=orthogonalPerimeter;outlineConnect=0;targetShapes=umlLifeline;portConstraint=eastwest;newEdgeStyle={&quot;edgeStyle&quot;:&quot;elbowEdgeStyle&quot;,&quot;elbow&quot;:&quot;vertical&quot;,&quot;curved&quot;:0,&quot;rounded&quot;:0};" vertex="1" parent="1">
          <mxGeometry x="135" y="170" width="10" height="500" as="geometry" />
        </mxCell>
        <mxCell id="RlYEHJUeCQ2ZVnFXcYko-5" value="" style="rounded=0;orthogonalLoop=1;jettySize=auto;html=1;exitX=0.5;exitY=1;exitDx=0;exitDy=0;endArrow=none;endFill=0;dashed=1;" edge="1" parent="1" source="GL3_LSBW69E1Yred1H23-2" target="RlYEHJUeCQ2ZVnFXcYko-4">
          <mxGeometry relative="1" as="geometry">
            <mxPoint x="380" y="140" as="sourcePoint" />
            <mxPoint x="380" y="700" as="targetPoint" />
          </mxGeometry>
        </mxCell>
        <mxCell id="RlYEHJUeCQ2ZVnFXcYko-4" value="" style="html=1;points=[];perimeter=orthogonalPerimeter;outlineConnect=0;targetShapes=umlLifeline;portConstraint=eastwest;newEdgeStyle={&quot;edgeStyle&quot;:&quot;elbowEdgeStyle&quot;,&quot;elbow&quot;:&quot;vertical&quot;,&quot;curved&quot;:0,&quot;rounded&quot;:0};" vertex="1" parent="1">
          <mxGeometry x="375" y="170" width="10" height="500" as="geometry" />
        </mxCell>
        <mxCell id="RlYEHJUeCQ2ZVnFXcYko-6" value="" style="html=1;points=[];perimeter=orthogonalPerimeter;outlineConnect=0;targetShapes=umlLifeline;portConstraint=eastwest;newEdgeStyle={&quot;edgeStyle&quot;:&quot;elbowEdgeStyle&quot;,&quot;elbow&quot;:&quot;vertical&quot;,&quot;curved&quot;:0,&quot;rounded&quot;:0};" vertex="1" parent="1">
          <mxGeometry x="615" y="170" width="10" height="500" as="geometry" />
        </mxCell>
      </root>
    </mxGraphModel>
  </diagram>
</mxfile>
